<svg xmlns="http://www.w3.org/2000/svg"  viewBox="0 0 64 64" width="256px" height="256px"><path d="M 32.019531 8 C 27.381531 8 23.210156 9.6845156 20.285156 12.353516 C 18.339156 10.843516 15.906281 10 13.363281 10 C 7.0992812 10 2 15.136547 2 21.435547 C 2 27.811547 7.0992813 33 13.363281 33 C 15.835281 33 18.247609 32.143844 20.224609 30.589844 C 21.281609 31.565844 22.502469 32.408844 23.855469 33.089844 C 20.845469 34.066844 15 37.588 15 42.75 C 15 44.896 17.225813 46.5 19.257812 46.5 C 20.531813 46.5 21.654984 45.861625 22.333984 44.890625 C 22.403984 46.539625 23.122 48.246 23.5 49.5 C 19 50 17 53.999219 17 55.824219 C 17 58.030219 19.366594 58.998047 23.183594 58.998047 C 26.726594 58.999047 30.794922 58.638219 30.794922 55.824219 C 30.794922 55.638219 30.752562 55.221766 30.726562 55.009766 C 31.114563 55.040766 31.517937 55.060547 31.960938 55.060547 C 32.442937 55.060547 32.878875 55.036 33.296875 55 C 33.268875 55.216 33.224609 55.634219 33.224609 55.824219 C 33.224609 58.638219 37.291031 59 40.832031 59 C 44.652031 59 47 58.030219 47 55.824219 C 47 53.999219 45 50 40.5 49.5 C 40.874 48.334 41.560109 46.683469 41.662109 44.980469 C 42.347109 45.896469 43.431109 46.5 44.662109 46.5 C 46.696109 46.5 49.019531 44.896 49.019531 42.75 C 49.019531 37.626 43.170719 34.120281 40.136719 33.113281 C 41.434719 32.465281 42.613578 31.67 43.642578 30.75 C 45.577578 32.2 47.925219 33 50.324219 33 C 56.648219 33 62 27.709547 62 21.435547 C 62 15.238547 56.648219 10 50.324219 10 C 47.852219 10 45.496891 10.789219 43.587891 12.199219 C 40.671891 9.6182188 36.569531 8 32.019531 8 z M 32.019531 12 C 38.636531 12 44.019531 16.262 44.019531 21.5 C 44.019531 26.738 38.636531 31 32.019531 31 C 25.402531 31 20.019531 26.738 20.019531 21.5 C 20.019531 16.262 25.402531 12 32.019531 12 z M 28 15.5 C 26.291 15.5 24.576906 16.318516 24.503906 16.353516 L 23.605469 16.789062 L 24.472656 18.587891 L 25.373047 18.15625 C 25.386047 18.14925 26.756 17.5 28 17.5 L 29 17.5 L 29 15.5 L 28 15.5 z M 35 15.5 L 35 17.5 L 36 17.5 C 37.254 17.5 38.529875 18.138484 38.546875 18.146484 L 39.433594 18.601562 L 40.345703 16.822266 L 39.455078 16.365234 C 39.386078 16.329234 37.748 15.5 36 15.5 L 35 15.5 z M 25.984375 19.980469 C 24.642375 19.980469 23.554688 21.099469 23.554688 22.480469 C 23.554688 23.862469 24.642375 24.980469 25.984375 24.980469 C 27.327375 24.980469 28.414062 23.862469 28.414062 22.480469 C 28.414062 22.054469 28.299187 21.659594 28.117188 21.308594 C 28.037188 21.895594 27.569562 22.353516 26.976562 22.353516 C 26.328563 22.353516 25.802734 21.814484 25.802734 21.146484 C 25.802734 20.651484 26.093813 20.228969 26.507812 20.042969 C 26.338812 20.003969 26.164375 19.980469 25.984375 19.980469 z M 38 19.980469 C 36.657 19.980469 35.570312 21.099469 35.570312 22.480469 C 35.570312 23.862469 36.657 24.980469 38 24.980469 C 39.343 24.980469 40.429688 23.862469 40.429688 22.480469 C 40.429688 22.054469 40.316766 21.659594 40.134766 21.308594 C 40.053766 21.895594 39.583234 22.353516 38.990234 22.353516 C 38.343234 22.353516 37.818359 21.814484 37.818359 21.146484 C 37.818359 20.651484 38.107484 20.228969 38.521484 20.042969 C 38.353484 20.003969 38.18 19.980469 38 19.980469 z M 32 24.740234 L 30.746094 25.990234 L 33.255859 25.990234 L 32 24.740234 z M 29 28 C 29 28 30.782 30 32 30 C 33.218 30 35 28 35 28 L 29 28 z M 26.986328 34.304688 C 28.571328 34.749688 30.260531 35 32.019531 35 C 33.769531 35 35.451297 34.7525 37.029297 34.3125 C 37.657297 35.5125 38 36.881641 38 38.306641 C 38 43.425641 34.937 45 32 45 C 29.063 45 26 43.425641 26 38.306641 C 26 36.878641 26.349328 35.506687 26.986328 34.304688 z"/></svg>